<svg width="21" height="18" viewBox="0 0 21 18" fill="none" xmlns="http://www.w3.org/2000/svg">
<path fill-rule="evenodd" clip-rule="evenodd" d="M20.3737 8.3488L12.6937 0.296161C12.3356 -0.0702057 11.7543 -0.112761 11.3362 0.259157C10.9631 0.590366 10.9537 1.23798 11.2987 1.59878L17.4639 8.05273H1.80375C1.27311 8.05273 0.84375 8.47646 0.84375 9.0001C0.84375 9.52375 1.27313 9.94747 1.80375 9.94747H17.4639L11.2987 16.4014C10.9537 16.7622 10.9781 17.3932 11.3362 17.7411C11.715 18.1074 12.3412 18.076 12.6937 17.704L20.3737 9.65141C20.5987 9.43307 20.64 9.22213 20.6437 9.00009C20.6437 8.78178 20.5087 8.48944 20.3737 8.3488Z" fill="url(#paint0_linear_3_1735)"/>
<defs>
<linearGradient id="paint0_linear_3_1735" x1="0.84375" y1="1.56198" x2="19.0888" y2="18.1484" gradientUnits="userSpaceOnUse">
<stop stop-color="#665DCD"/>
<stop offset="0.447624" stop-color="#5FA4E6"/>
<stop offset="1" stop-color="#D2AB67"/>
</linearGradient>
</defs>
</svg>
